Coordinates
version=1
nRows=21
nColumns=12
inDegrees=yes

Units are S.I. units (second, meters, Newtons, ...)
Angles are in degrees

endheader
time	SC_y	SC_z	SC_x	AC_y	AC_z	AC_x	GH_y	GH_z	GH_yy	EL_x	PS_y
       0.0              -37.88           30.5          20.43          57.85         -3.805         -11.97         -154.3          5.826          33.99          44.04          144.1
  0.001483              -37.88          30.49          20.44          57.84         -3.804         -11.97         -154.3          5.825          33.99          44.04          144.1
  0.002966              -37.88          30.49          20.45          57.84         -3.804         -11.97         -154.2          5.823          33.99          44.05          144.1
  0.004449              -37.88          30.48          20.46          57.84         -3.803         -11.97         -154.2          5.822          33.99          44.05          144.1
  0.005933              -37.88          30.48          20.46          57.83         -3.802         -11.97         -154.2           5.82          33.99          44.05          144.1
  0.007416              -37.87          30.47          20.47          57.83         -3.801         -11.96         -154.2          5.818          33.99          44.06          144.1
  0.008899              -37.87          30.47          20.48          57.82           -3.8         -11.96         -154.2          5.816          33.99          44.06          144.1
   0.01038              -37.87          30.46          20.49          57.82         -3.798         -11.96         -154.1          5.814           34.0          44.07          144.0
   0.01187              -37.87          30.46           20.5          57.81         -3.797         -11.96         -154.1          5.812           34.0          44.07          144.0
   0.01335              -37.86          30.45          20.52          57.81         -3.796         -11.96         -154.1           5.81           34.0          44.08          144.0
   0.01483              -37.86          30.44          20.53           57.8         -3.794         -11.96         -154.0          5.807           34.0          44.08          144.0
   0.01631              -37.86          30.43          20.54          57.79         -3.793         -11.96         -154.0          5.805           34.0          44.09          144.0
    0.0178              -37.85          30.43          20.56          57.79         -3.791         -11.95         -154.0          5.802           34.0           44.1          144.0
   0.01928              -37.85          30.42          20.57          57.78         -3.789         -11.95         -153.9          5.799          34.01           44.1          144.0
   0.02076              -37.85          30.41          20.59          57.77         -3.787         -11.95         -153.9          5.795          34.01          44.11          144.0
   0.02225              -37.84           30.4          20.61          57.76         -3.785         -11.95         -153.8          5.792          34.01          44.12          144.0
   0.02373              -37.84          30.38          20.63          57.75         -3.783         -11.94         -153.8          5.788          34.01          44.13          143.9
   0.02521              -37.83          30.37          20.65          57.74          -3.78         -11.94         -153.7          5.783          34.02          44.14          143.9
    0.0267              -37.83          30.36          20.68          57.73         -3.778         -11.94         -153.7          5.779          34.02          44.15          143.9
   0.02818              -37.82          30.34           20.7          57.72         -3.775         -11.93         -153.6          5.773          34.02          44.16          143.9
   0.02966              -37.82          30.33          20.73           57.7         -3.771         -11.93         -153.5          5.768          34.03          44.18          143.9
